<mxfile host="app.diagrams.net" agent="Mozilla/5.0 (Windows NT 10.0; Win64; x64) AppleWebKit/537.36 (KHTML, like Gecko) Chrome/134.0.0.0 Safari/537.36" version="26.1.3">
  <diagram name="Page-1" id="2ijhO0yuNxRQ-9OjhCZB">
    <mxGraphModel dx="5385" dy="1030" grid="0" gridSize="10" guides="1" tooltips="1" connect="1" arrows="1" fold="1" page="1" pageScale="1" pageWidth="1700" pageHeight="1200" math="0" shadow="0">
      <root>
        <mxCell id="0" />
        <mxCell id="1" parent="0" />
        <mxCell id="6tPHo7xOfF66FTx9ZSS8-1" value="User" style="whiteSpace=wrap;html=1;align=center;fillColor=#e1d5e7;strokeColor=#9673a6;" parent="1" vertex="1">
          <mxGeometry x="-2741" y="517.5" width="101" height="40" as="geometry" />
        </mxCell>
        <mxCell id="6tPHo7xOfF66FTx9ZSS8-2" value="owns" style="shape=rhombus;perimeter=rhombusPerimeter;whiteSpace=wrap;html=1;align=center;" parent="1" vertex="1">
          <mxGeometry x="-2591" y="513" width="91" height="49" as="geometry" />
        </mxCell>
        <mxCell id="6tPHo7xOfF66FTx9ZSS8-3" value="stores in" style="shape=rhombus;perimeter=rhombusPerimeter;whiteSpace=wrap;html=1;align=center;" parent="1" vertex="1">
          <mxGeometry x="-2855" y="494.5" width="72" height="33" as="geometry" />
        </mxCell>
        <mxCell id="6tPHo7xOfF66FTx9ZSS8-4" value="" style="endArrow=none;html=1;rounded=0;exitX=1;exitY=0.5;exitDx=0;exitDy=0;" parent="1" source="6tPHo7xOfF66FTx9ZSS8-1" edge="1">
          <mxGeometry relative="1" as="geometry">
            <mxPoint x="-2751" y="536.79" as="sourcePoint" />
            <mxPoint x="-2591" y="536.79" as="targetPoint" />
          </mxGeometry>
        </mxCell>
        <mxCell id="6tPHo7xOfF66FTx9ZSS8-5" value="1" style="edgeLabel;html=1;align=center;verticalAlign=middle;resizable=0;points=[];" parent="6tPHo7xOfF66FTx9ZSS8-4" vertex="1" connectable="0">
          <mxGeometry x="-0.1491" y="2" relative="1" as="geometry">
            <mxPoint x="-1" as="offset" />
          </mxGeometry>
        </mxCell>
        <mxCell id="6tPHo7xOfF66FTx9ZSS8-6" value="" style="endArrow=none;html=1;rounded=0;exitX=0.5;exitY=1;exitDx=0;exitDy=0;entryX=0.5;entryY=0;entryDx=0;entryDy=0;" parent="1" source="6tPHo7xOfF66FTx9ZSS8-1" target="6tPHo7xOfF66FTx9ZSS8-41" edge="1">
          <mxGeometry relative="1" as="geometry">
            <mxPoint x="-2845" y="596" as="sourcePoint" />
            <mxPoint x="-2692" y="603" as="targetPoint" />
          </mxGeometry>
        </mxCell>
        <mxCell id="6tPHo7xOfF66FTx9ZSS8-7" value="1" style="edgeLabel;html=1;align=center;verticalAlign=middle;resizable=0;points=[];" parent="6tPHo7xOfF66FTx9ZSS8-6" vertex="1" connectable="0">
          <mxGeometry x="-0.0338" y="-1" relative="1" as="geometry">
            <mxPoint as="offset" />
          </mxGeometry>
        </mxCell>
        <mxCell id="6tPHo7xOfF66FTx9ZSS8-9" value="" style="endArrow=none;html=1;rounded=0;exitX=1;exitY=0.5;exitDx=0;exitDy=0;entryX=0;entryY=0.25;entryDx=0;entryDy=0;" parent="1" source="6tPHo7xOfF66FTx9ZSS8-3" target="6tPHo7xOfF66FTx9ZSS8-1" edge="1">
          <mxGeometry relative="1" as="geometry">
            <mxPoint x="-2796.75" y="538.02" as="sourcePoint" />
            <mxPoint x="-2816" y="490" as="targetPoint" />
          </mxGeometry>
        </mxCell>
        <mxCell id="6tPHo7xOfF66FTx9ZSS8-10" value="m" style="edgeLabel;html=1;align=center;verticalAlign=middle;resizable=0;points=[];" parent="6tPHo7xOfF66FTx9ZSS8-9" vertex="1" connectable="0">
          <mxGeometry x="-0.0187" y="2" relative="1" as="geometry">
            <mxPoint as="offset" />
          </mxGeometry>
        </mxCell>
        <mxCell id="6tPHo7xOfF66FTx9ZSS8-11" value="recieves" style="shape=rhombus;perimeter=rhombusPerimeter;whiteSpace=wrap;html=1;align=center;" parent="1" vertex="1">
          <mxGeometry x="-2736" y="435" width="91" height="38" as="geometry" />
        </mxCell>
        <mxCell id="6tPHo7xOfF66FTx9ZSS8-12" value="" style="endArrow=none;html=1;rounded=0;exitX=0.5;exitY=0;exitDx=0;exitDy=0;entryX=0.5;entryY=1;entryDx=0;entryDy=0;" parent="1" source="6tPHo7xOfF66FTx9ZSS8-1" target="6tPHo7xOfF66FTx9ZSS8-11" edge="1">
          <mxGeometry relative="1" as="geometry">
            <mxPoint x="-2843" y="395" as="sourcePoint" />
            <mxPoint x="-2683" y="395" as="targetPoint" />
          </mxGeometry>
        </mxCell>
        <mxCell id="6tPHo7xOfF66FTx9ZSS8-13" value="1" style="edgeLabel;html=1;align=center;verticalAlign=middle;resizable=0;points=[];" parent="6tPHo7xOfF66FTx9ZSS8-12" vertex="1" connectable="0">
          <mxGeometry x="-0.4407" y="1" relative="1" as="geometry">
            <mxPoint as="offset" />
          </mxGeometry>
        </mxCell>
        <mxCell id="6tPHo7xOfF66FTx9ZSS8-14" value="" style="endArrow=none;html=1;rounded=0;exitX=0.75;exitY=0;exitDx=0;exitDy=0;entryX=0;entryY=1;entryDx=0;entryDy=0;" parent="1" source="6tPHo7xOfF66FTx9ZSS8-1" target="6tPHo7xOfF66FTx9ZSS8-15" edge="1">
          <mxGeometry relative="1" as="geometry">
            <mxPoint x="-2698" y="505" as="sourcePoint" />
            <mxPoint x="-2643.3606797750003" y="499.8885438200001" as="targetPoint" />
          </mxGeometry>
        </mxCell>
        <mxCell id="6tPHo7xOfF66FTx9ZSS8-15" value="User_id" style="ellipse;whiteSpace=wrap;html=1;align=center;fontStyle=4;" parent="1" vertex="1">
          <mxGeometry x="-2648" y="475" width="79" height="20" as="geometry" />
        </mxCell>
        <mxCell id="6tPHo7xOfF66FTx9ZSS8-16" value="" style="endArrow=none;html=1;rounded=0;exitX=0.75;exitY=1;exitDx=0;exitDy=0;entryX=0.179;entryY=0.293;entryDx=0;entryDy=0;entryPerimeter=0;" parent="1" source="6tPHo7xOfF66FTx9ZSS8-1" target="6tPHo7xOfF66FTx9ZSS8-17" edge="1">
          <mxGeometry relative="1" as="geometry">
            <mxPoint x="-2779" y="567" as="sourcePoint" />
            <mxPoint x="-2636" y="579" as="targetPoint" />
          </mxGeometry>
        </mxCell>
        <mxCell id="6tPHo7xOfF66FTx9ZSS8-17" value="name" style="ellipse;whiteSpace=wrap;html=1;align=center;" parent="1" vertex="1">
          <mxGeometry x="-2671" y="578" width="53" height="18" as="geometry" />
        </mxCell>
        <mxCell id="6tPHo7xOfF66FTx9ZSS8-18" value="" style="endArrow=none;html=1;rounded=0;exitX=0.25;exitY=1;exitDx=0;exitDy=0;" parent="1" source="6tPHo7xOfF66FTx9ZSS8-1" target="6tPHo7xOfF66FTx9ZSS8-19" edge="1">
          <mxGeometry relative="1" as="geometry">
            <mxPoint x="-2779" y="567" as="sourcePoint" />
            <mxPoint x="-2735" y="585" as="targetPoint" />
          </mxGeometry>
        </mxCell>
        <mxCell id="6tPHo7xOfF66FTx9ZSS8-19" value="&lt;font style=&quot;font-size: 8px;&quot;&gt;phone_number&lt;/font&gt;" style="ellipse;shape=doubleEllipse;margin=3;whiteSpace=wrap;html=1;align=center;" parent="1" vertex="1">
          <mxGeometry x="-2774" y="580" width="64" height="17" as="geometry" />
        </mxCell>
        <mxCell id="6tPHo7xOfF66FTx9ZSS8-20" value="" style="endArrow=none;html=1;rounded=0;exitX=0;exitY=0.5;exitDx=0;exitDy=0;entryX=1;entryY=0.5;entryDx=0;entryDy=0;" parent="1" source="6tPHo7xOfF66FTx9ZSS8-1" target="6tPHo7xOfF66FTx9ZSS8-21" edge="1">
          <mxGeometry relative="1" as="geometry">
            <mxPoint x="-2779" y="526" as="sourcePoint" />
            <mxPoint x="-2776" y="535" as="targetPoint" />
          </mxGeometry>
        </mxCell>
        <mxCell id="6tPHo7xOfF66FTx9ZSS8-21" value="password" style="ellipse;whiteSpace=wrap;html=1;align=center;" parent="1" vertex="1">
          <mxGeometry x="-2864.5" y="540.5" width="91" height="17" as="geometry" />
        </mxCell>
        <mxCell id="6tPHo7xOfF66FTx9ZSS8-22" value="" style="endArrow=none;html=1;rounded=0;exitX=0.25;exitY=0;exitDx=0;exitDy=0;" parent="1" source="6tPHo7xOfF66FTx9ZSS8-1" target="6tPHo7xOfF66FTx9ZSS8-23" edge="1">
          <mxGeometry relative="1" as="geometry">
            <mxPoint x="-2779" y="526" as="sourcePoint" />
            <mxPoint x="-2619" y="526" as="targetPoint" />
          </mxGeometry>
        </mxCell>
        <mxCell id="6tPHo7xOfF66FTx9ZSS8-23" value="gender" style="ellipse;whiteSpace=wrap;html=1;align=center;" parent="1" vertex="1">
          <mxGeometry x="-2801" y="473" width="87" height="17" as="geometry" />
        </mxCell>
        <mxCell id="6tPHo7xOfF66FTx9ZSS8-25" value="Cart" style="whiteSpace=wrap;html=1;align=center;fillColor=#e1d5e7;strokeColor=#9673a6;" parent="1" vertex="1">
          <mxGeometry x="-3002" y="370.5" width="100" height="40" as="geometry" />
        </mxCell>
        <mxCell id="6tPHo7xOfF66FTx9ZSS8-28" value="cart_id" style="ellipse;whiteSpace=wrap;html=1;align=center;fontStyle=4;" parent="1" vertex="1">
          <mxGeometry x="-2881.75" y="315" width="116" height="20" as="geometry" />
        </mxCell>
        <mxCell id="6tPHo7xOfF66FTx9ZSS8-29" value="quantity" style="ellipse;whiteSpace=wrap;html=1;align=center;" parent="1" vertex="1">
          <mxGeometry x="-2873" y="368" width="124" height="18" as="geometry" />
        </mxCell>
        <mxCell id="6tPHo7xOfF66FTx9ZSS8-30" value="outfit_id" style="ellipse;whiteSpace=wrap;html=1;align=center;" parent="1" vertex="1">
          <mxGeometry x="-3058" y="456" width="92" height="22" as="geometry" />
        </mxCell>
        <mxCell id="6tPHo7xOfF66FTx9ZSS8-31" value="user_id" style="ellipse;whiteSpace=wrap;html=1;align=center;" parent="1" vertex="1">
          <mxGeometry x="-3005" y="296.25" width="85" height="23" as="geometry" />
        </mxCell>
        <mxCell id="6tPHo7xOfF66FTx9ZSS8-34" value="" style="endArrow=none;html=1;rounded=0;entryX=1;entryY=0;entryDx=0;entryDy=0;exitX=0.25;exitY=1;exitDx=0;exitDy=0;" parent="1" source="6tPHo7xOfF66FTx9ZSS8-25" target="6tPHo7xOfF66FTx9ZSS8-30" edge="1">
          <mxGeometry relative="1" as="geometry">
            <mxPoint x="-2980" y="416" as="sourcePoint" />
            <mxPoint x="-2804" y="373" as="targetPoint" />
          </mxGeometry>
        </mxCell>
        <mxCell id="6tPHo7xOfF66FTx9ZSS8-35" value="" style="endArrow=none;html=1;rounded=0;exitX=0.5;exitY=1;exitDx=0;exitDy=0;entryX=0.25;entryY=0;entryDx=0;entryDy=0;" parent="1" source="6tPHo7xOfF66FTx9ZSS8-31" target="6tPHo7xOfF66FTx9ZSS8-25" edge="1">
          <mxGeometry relative="1" as="geometry">
            <mxPoint x="-3000" y="383.75" as="sourcePoint" />
            <mxPoint x="-3002" y="381" as="targetPoint" />
          </mxGeometry>
        </mxCell>
        <mxCell id="6tPHo7xOfF66FTx9ZSS8-36" value="" style="endArrow=none;html=1;rounded=0;exitX=0.5;exitY=0;exitDx=0;exitDy=0;entryX=0;entryY=0.5;entryDx=0;entryDy=0;" parent="1" source="6tPHo7xOfF66FTx9ZSS8-25" target="6tPHo7xOfF66FTx9ZSS8-28" edge="1">
          <mxGeometry relative="1" as="geometry">
            <mxPoint x="-2893" y="535" as="sourcePoint" />
            <mxPoint x="-2733" y="535" as="targetPoint" />
          </mxGeometry>
        </mxCell>
        <mxCell id="6tPHo7xOfF66FTx9ZSS8-37" value="" style="endArrow=none;html=1;rounded=0;exitX=0.5;exitY=1;exitDx=0;exitDy=0;entryX=0;entryY=0.5;entryDx=0;entryDy=0;" parent="1" source="6tPHo7xOfF66FTx9ZSS8-25" target="6tPHo7xOfF66FTx9ZSS8-3" edge="1">
          <mxGeometry relative="1" as="geometry">
            <mxPoint x="-2893" y="535" as="sourcePoint" />
            <mxPoint x="-2733" y="535" as="targetPoint" />
          </mxGeometry>
        </mxCell>
        <mxCell id="6tPHo7xOfF66FTx9ZSS8-317" value="1" style="edgeLabel;html=1;align=center;verticalAlign=middle;resizable=0;points=[];" parent="6tPHo7xOfF66FTx9ZSS8-37" vertex="1" connectable="0">
          <mxGeometry x="-0.7409" relative="1" as="geometry">
            <mxPoint as="offset" />
          </mxGeometry>
        </mxCell>
        <mxCell id="6tPHo7xOfF66FTx9ZSS8-38" value="" style="endArrow=none;html=1;rounded=0;exitX=1;exitY=0.75;exitDx=0;exitDy=0;entryX=0;entryY=0.5;entryDx=0;entryDy=0;" parent="1" source="6tPHo7xOfF66FTx9ZSS8-25" target="6tPHo7xOfF66FTx9ZSS8-29" edge="1">
          <mxGeometry relative="1" as="geometry">
            <mxPoint x="-2893" y="535" as="sourcePoint" />
            <mxPoint x="-2733" y="535" as="targetPoint" />
          </mxGeometry>
        </mxCell>
        <mxCell id="6tPHo7xOfF66FTx9ZSS8-39" value="ScanHistory" style="whiteSpace=wrap;html=1;align=center;fillColor=#fff2cc;strokeColor=#d6b656;" parent="1" vertex="1">
          <mxGeometry x="-2714.5" y="881" width="100" height="40" as="geometry" />
        </mxCell>
        <mxCell id="6tPHo7xOfF66FTx9ZSS8-40" value="Storedin" style="shape=rhombus;perimeter=rhombusPerimeter;whiteSpace=wrap;html=1;align=center;" parent="1" vertex="1">
          <mxGeometry x="-2703.75" y="782" width="79" height="46" as="geometry" />
        </mxCell>
        <mxCell id="6tPHo7xOfF66FTx9ZSS8-41" value="scans" style="shape=rhombus;perimeter=rhombusPerimeter;whiteSpace=wrap;html=1;align=center;" parent="1" vertex="1">
          <mxGeometry x="-2704.75" y="615" width="69" height="43" as="geometry" />
        </mxCell>
        <mxCell id="6tPHo7xOfF66FTx9ZSS8-42" value="gives" style="shape=rhombus;perimeter=rhombusPerimeter;whiteSpace=wrap;html=1;align=center;" parent="1" vertex="1">
          <mxGeometry x="-2884.75" y="692" width="62" height="35" as="geometry" />
        </mxCell>
        <mxCell id="6tPHo7xOfF66FTx9ZSS8-43" value="ColorCombination" style="rounded=1;arcSize=10;whiteSpace=wrap;html=1;align=center;fillColor=#fff2cc;strokeColor=#d6b656;" parent="1" vertex="1">
          <mxGeometry x="-2903.75" y="799" width="100" height="40" as="geometry" />
        </mxCell>
        <mxCell id="6tPHo7xOfF66FTx9ZSS8-44" value="Scanned Outfit" style="rounded=1;arcSize=10;whiteSpace=wrap;html=1;align=center;fillColor=#e1d5e7;strokeColor=#9673a6;" parent="1" vertex="1">
          <mxGeometry x="-2715.25" y="695" width="100" height="34" as="geometry" />
        </mxCell>
        <mxCell id="6tPHo7xOfF66FTx9ZSS8-46" value="" style="endArrow=none;html=1;rounded=0;exitX=0.5;exitY=0;exitDx=0;exitDy=0;entryX=0.5;entryY=1;entryDx=0;entryDy=0;" parent="1" source="6tPHo7xOfF66FTx9ZSS8-44" target="6tPHo7xOfF66FTx9ZSS8-41" edge="1">
          <mxGeometry relative="1" as="geometry">
            <mxPoint x="-2826.75" y="658" as="sourcePoint" />
            <mxPoint x="-2666.75" y="658" as="targetPoint" />
          </mxGeometry>
        </mxCell>
        <mxCell id="6tPHo7xOfF66FTx9ZSS8-47" value="m" style="edgeLabel;html=1;align=center;verticalAlign=middle;resizable=0;points=[];" parent="6tPHo7xOfF66FTx9ZSS8-46" vertex="1" connectable="0">
          <mxGeometry x="0.042" y="1" relative="1" as="geometry">
            <mxPoint as="offset" />
          </mxGeometry>
        </mxCell>
        <mxCell id="6tPHo7xOfF66FTx9ZSS8-48" value="" style="endArrow=none;html=1;rounded=0;exitX=0.5;exitY=0;exitDx=0;exitDy=0;" parent="1" source="6tPHo7xOfF66FTx9ZSS8-39" edge="1">
          <mxGeometry relative="1" as="geometry">
            <mxPoint x="-2824.75" y="828" as="sourcePoint" />
            <mxPoint x="-2664.75" y="828" as="targetPoint" />
          </mxGeometry>
        </mxCell>
        <mxCell id="6tPHo7xOfF66FTx9ZSS8-49" value="m" style="edgeLabel;html=1;align=center;verticalAlign=middle;resizable=0;points=[];" parent="6tPHo7xOfF66FTx9ZSS8-48" vertex="1" connectable="0">
          <mxGeometry x="-0.1381" y="-2" relative="1" as="geometry">
            <mxPoint as="offset" />
          </mxGeometry>
        </mxCell>
        <mxCell id="6tPHo7xOfF66FTx9ZSS8-50" value="" style="endArrow=none;html=1;rounded=0;exitX=0.5;exitY=1;exitDx=0;exitDy=0;entryX=0.5;entryY=0;entryDx=0;entryDy=0;" parent="1" source="6tPHo7xOfF66FTx9ZSS8-44" target="6tPHo7xOfF66FTx9ZSS8-40" edge="1">
          <mxGeometry relative="1" as="geometry">
            <mxPoint x="-2824.75" y="781" as="sourcePoint" />
            <mxPoint x="-2664.75" y="781" as="targetPoint" />
          </mxGeometry>
        </mxCell>
        <mxCell id="6tPHo7xOfF66FTx9ZSS8-51" value="m" style="edgeLabel;html=1;align=center;verticalAlign=middle;resizable=0;points=[];" parent="6tPHo7xOfF66FTx9ZSS8-50" vertex="1" connectable="0">
          <mxGeometry x="-0.1358" y="-3" relative="1" as="geometry">
            <mxPoint as="offset" />
          </mxGeometry>
        </mxCell>
        <mxCell id="6tPHo7xOfF66FTx9ZSS8-52" value="" style="endArrow=none;html=1;rounded=0;exitX=0.5;exitY=0;exitDx=0;exitDy=0;entryX=0.5;entryY=1;entryDx=0;entryDy=0;" parent="1" source="6tPHo7xOfF66FTx9ZSS8-43" target="6tPHo7xOfF66FTx9ZSS8-42" edge="1">
          <mxGeometry relative="1" as="geometry">
            <mxPoint x="-2869.75" y="727" as="sourcePoint" />
            <mxPoint x="-2718.75" y="722" as="targetPoint" />
          </mxGeometry>
        </mxCell>
        <mxCell id="6tPHo7xOfF66FTx9ZSS8-53" value="1" style="edgeLabel;html=1;align=center;verticalAlign=middle;resizable=0;points=[];" parent="6tPHo7xOfF66FTx9ZSS8-52" vertex="1" connectable="0">
          <mxGeometry x="-0.0139" relative="1" as="geometry">
            <mxPoint as="offset" />
          </mxGeometry>
        </mxCell>
        <mxCell id="6tPHo7xOfF66FTx9ZSS8-54" value="" style="endArrow=none;html=1;rounded=0;exitX=1;exitY=0.5;exitDx=0;exitDy=0;entryX=0;entryY=0.5;entryDx=0;entryDy=0;" parent="1" source="6tPHo7xOfF66FTx9ZSS8-42" target="6tPHo7xOfF66FTx9ZSS8-44" edge="1">
          <mxGeometry relative="1" as="geometry">
            <mxPoint x="-2759.75" y="730" as="sourcePoint" />
            <mxPoint x="-2715.25" y="730" as="targetPoint" />
          </mxGeometry>
        </mxCell>
        <mxCell id="6tPHo7xOfF66FTx9ZSS8-55" value="m" style="edgeLabel;html=1;align=center;verticalAlign=middle;resizable=0;points=[];" parent="6tPHo7xOfF66FTx9ZSS8-54" vertex="1" connectable="0">
          <mxGeometry x="0.0109" y="1" relative="1" as="geometry">
            <mxPoint as="offset" />
          </mxGeometry>
        </mxCell>
        <mxCell id="6tPHo7xOfF66FTx9ZSS8-61" value="outfit_id" style="ellipse;whiteSpace=wrap;html=1;align=center;fontStyle=4;" parent="1" vertex="1">
          <mxGeometry x="-2568.75" y="914" width="103" height="30" as="geometry" />
        </mxCell>
        <mxCell id="6tPHo7xOfF66FTx9ZSS8-63" value="Scan_id" style="ellipse;whiteSpace=wrap;html=1;align=center;fontStyle=4;" parent="1" vertex="1">
          <mxGeometry x="-2814.75" y="628" width="95" height="25" as="geometry" />
        </mxCell>
        <mxCell id="6tPHo7xOfF66FTx9ZSS8-64" value="wardobe_id" style="ellipse;whiteSpace=wrap;html=1;align=center;" parent="1" vertex="1">
          <mxGeometry x="-2803.75" y="734" width="95.5" height="23" as="geometry" />
        </mxCell>
        <mxCell id="6tPHo7xOfF66FTx9ZSS8-65" value="user_id" style="ellipse;whiteSpace=wrap;html=1;align=center;" parent="1" vertex="1">
          <mxGeometry x="-2591.25" y="707" width="106" height="22" as="geometry" />
        </mxCell>
        <mxCell id="6tPHo7xOfF66FTx9ZSS8-66" value="Scan_result" style="ellipse;whiteSpace=wrap;html=1;align=center;" parent="1" vertex="1">
          <mxGeometry x="-2629.75" y="649" width="103" height="20" as="geometry" />
        </mxCell>
        <mxCell id="6tPHo7xOfF66FTx9ZSS8-67" value="" style="endArrow=none;html=1;rounded=0;exitX=0.5;exitY=0;exitDx=0;exitDy=0;entryX=0.25;entryY=1;entryDx=0;entryDy=0;" parent="1" source="6tPHo7xOfF66FTx9ZSS8-64" target="6tPHo7xOfF66FTx9ZSS8-44" edge="1">
          <mxGeometry relative="1" as="geometry">
            <mxPoint x="-2759.75" y="708" as="sourcePoint" />
            <mxPoint x="-2694.75" y="731" as="targetPoint" />
          </mxGeometry>
        </mxCell>
        <mxCell id="6tPHo7xOfF66FTx9ZSS8-68" value="" style="endArrow=none;html=1;rounded=0;exitX=0;exitY=0.5;exitDx=0;exitDy=0;entryX=1;entryY=1;entryDx=0;entryDy=0;" parent="1" source="6tPHo7xOfF66FTx9ZSS8-65" target="6tPHo7xOfF66FTx9ZSS8-44" edge="1">
          <mxGeometry relative="1" as="geometry">
            <mxPoint x="-2759.75" y="708" as="sourcePoint" />
            <mxPoint x="-2602.75" y="734" as="targetPoint" />
          </mxGeometry>
        </mxCell>
        <mxCell id="6tPHo7xOfF66FTx9ZSS8-69" value="" style="endArrow=none;html=1;rounded=0;exitX=0.5;exitY=1;exitDx=0;exitDy=0;entryX=0.75;entryY=0;entryDx=0;entryDy=0;" parent="1" source="6tPHo7xOfF66FTx9ZSS8-66" target="6tPHo7xOfF66FTx9ZSS8-44" edge="1">
          <mxGeometry relative="1" as="geometry">
            <mxPoint x="-2759.75" y="708" as="sourcePoint" />
            <mxPoint x="-2599.75" y="708" as="targetPoint" />
          </mxGeometry>
        </mxCell>
        <mxCell id="6tPHo7xOfF66FTx9ZSS8-70" value="" style="endArrow=none;html=1;rounded=0;exitX=1;exitY=1;exitDx=0;exitDy=0;entryX=0.25;entryY=0;entryDx=0;entryDy=0;" parent="1" source="6tPHo7xOfF66FTx9ZSS8-63" target="6tPHo7xOfF66FTx9ZSS8-44" edge="1">
          <mxGeometry relative="1" as="geometry">
            <mxPoint x="-2759.75" y="708" as="sourcePoint" />
            <mxPoint x="-2599.75" y="708" as="targetPoint" />
          </mxGeometry>
        </mxCell>
        <mxCell id="6tPHo7xOfF66FTx9ZSS8-71" value="user_id" style="ellipse;whiteSpace=wrap;html=1;align=center;" parent="1" vertex="1">
          <mxGeometry x="-2796.75" y="959" width="131" height="23" as="geometry" />
        </mxCell>
        <mxCell id="6tPHo7xOfF66FTx9ZSS8-72" value="history_id" style="ellipse;whiteSpace=wrap;html=1;align=center;fontStyle=4;" parent="1" vertex="1">
          <mxGeometry x="-2589.75" y="966" width="118" height="29" as="geometry" />
        </mxCell>
        <mxCell id="6tPHo7xOfF66FTx9ZSS8-73" value="scan_id" style="ellipse;whiteSpace=wrap;html=1;align=center;" parent="1" vertex="1">
          <mxGeometry x="-2637" y="1032" width="137.25" height="23" as="geometry" />
        </mxCell>
        <mxCell id="6tPHo7xOfF66FTx9ZSS8-74" value="timestamp" style="ellipse;whiteSpace=wrap;html=1;align=center;" parent="1" vertex="1">
          <mxGeometry x="-2713.75" y="995" width="120" height="23" as="geometry" />
        </mxCell>
        <mxCell id="6tPHo7xOfF66FTx9ZSS8-75" value="" style="endArrow=none;html=1;rounded=0;exitX=1;exitY=0.5;exitDx=0;exitDy=0;entryX=0.5;entryY=0;entryDx=0;entryDy=0;" parent="1" source="6tPHo7xOfF66FTx9ZSS8-39" target="6tPHo7xOfF66FTx9ZSS8-72" edge="1">
          <mxGeometry relative="1" as="geometry">
            <mxPoint x="-2740.75" y="1049" as="sourcePoint" />
            <mxPoint x="-2580.75" y="1049" as="targetPoint" />
          </mxGeometry>
        </mxCell>
        <mxCell id="6tPHo7xOfF66FTx9ZSS8-76" value="" style="endArrow=none;html=1;rounded=0;exitX=0.75;exitY=1;exitDx=0;exitDy=0;entryX=0.5;entryY=0;entryDx=0;entryDy=0;" parent="1" source="6tPHo7xOfF66FTx9ZSS8-39" target="6tPHo7xOfF66FTx9ZSS8-73" edge="1">
          <mxGeometry relative="1" as="geometry">
            <mxPoint x="-2777.75" y="1074" as="sourcePoint" />
            <mxPoint x="-2617.75" y="1074" as="targetPoint" />
          </mxGeometry>
        </mxCell>
        <mxCell id="6tPHo7xOfF66FTx9ZSS8-77" value="" style="endArrow=none;html=1;rounded=0;exitX=0.5;exitY=1;exitDx=0;exitDy=0;entryX=0.5;entryY=0;entryDx=0;entryDy=0;" parent="1" source="6tPHo7xOfF66FTx9ZSS8-39" target="6tPHo7xOfF66FTx9ZSS8-74" edge="1">
          <mxGeometry relative="1" as="geometry">
            <mxPoint x="-2740.75" y="1049" as="sourcePoint" />
            <mxPoint x="-2580.75" y="1049" as="targetPoint" />
          </mxGeometry>
        </mxCell>
        <mxCell id="6tPHo7xOfF66FTx9ZSS8-78" value="" style="endArrow=none;html=1;rounded=0;exitX=0.25;exitY=1;exitDx=0;exitDy=0;entryX=0.5;entryY=0;entryDx=0;entryDy=0;" parent="1" source="6tPHo7xOfF66FTx9ZSS8-39" target="6tPHo7xOfF66FTx9ZSS8-71" edge="1">
          <mxGeometry relative="1" as="geometry">
            <mxPoint x="-2740.75" y="1049" as="sourcePoint" />
            <mxPoint x="-2580.75" y="1049" as="targetPoint" />
          </mxGeometry>
        </mxCell>
        <mxCell id="6tPHo7xOfF66FTx9ZSS8-79" value="suitability" style="ellipse;whiteSpace=wrap;html=1;align=center;" parent="1" vertex="1">
          <mxGeometry x="-2836.75" y="885" width="113" height="25" as="geometry" />
        </mxCell>
        <mxCell id="6tPHo7xOfF66FTx9ZSS8-80" value="color2" style="ellipse;whiteSpace=wrap;html=1;align=center;" parent="1" vertex="1">
          <mxGeometry x="-2946.75" y="917" width="121" height="24" as="geometry" />
        </mxCell>
        <mxCell id="6tPHo7xOfF66FTx9ZSS8-81" value="color1" style="ellipse;whiteSpace=wrap;html=1;align=center;" parent="1" vertex="1">
          <mxGeometry x="-2791.75" y="831.5" width="113" height="24" as="geometry" />
        </mxCell>
        <mxCell id="6tPHo7xOfF66FTx9ZSS8-82" value="combination_id" style="ellipse;whiteSpace=wrap;html=1;align=center;fontStyle=4;" parent="1" vertex="1">
          <mxGeometry x="-2983" y="745.5" width="103.5" height="26" as="geometry" />
        </mxCell>
        <mxCell id="6tPHo7xOfF66FTx9ZSS8-83" value="" style="endArrow=none;html=1;rounded=0;exitX=1;exitY=0.5;exitDx=0;exitDy=0;entryX=0.5;entryY=0;entryDx=0;entryDy=0;" parent="1" source="6tPHo7xOfF66FTx9ZSS8-43" target="6tPHo7xOfF66FTx9ZSS8-81" edge="1">
          <mxGeometry relative="1" as="geometry">
            <mxPoint x="-2998.75" y="870" as="sourcePoint" />
            <mxPoint x="-2838.75" y="870" as="targetPoint" />
          </mxGeometry>
        </mxCell>
        <mxCell id="6tPHo7xOfF66FTx9ZSS8-84" value="" style="endArrow=none;html=1;rounded=0;exitX=0.75;exitY=1;exitDx=0;exitDy=0;entryX=0.5;entryY=0;entryDx=0;entryDy=0;" parent="1" source="6tPHo7xOfF66FTx9ZSS8-43" target="6tPHo7xOfF66FTx9ZSS8-79" edge="1">
          <mxGeometry relative="1" as="geometry">
            <mxPoint x="-2998.75" y="870" as="sourcePoint" />
            <mxPoint x="-2838.75" y="870" as="targetPoint" />
          </mxGeometry>
        </mxCell>
        <mxCell id="6tPHo7xOfF66FTx9ZSS8-85" value="" style="endArrow=none;html=1;rounded=0;exitX=0.5;exitY=1;exitDx=0;exitDy=0;entryX=0.5;entryY=0;entryDx=0;entryDy=0;" parent="1" source="6tPHo7xOfF66FTx9ZSS8-43" target="6tPHo7xOfF66FTx9ZSS8-80" edge="1">
          <mxGeometry relative="1" as="geometry">
            <mxPoint x="-3044.75" y="932" as="sourcePoint" />
            <mxPoint x="-2884.75" y="932" as="targetPoint" />
          </mxGeometry>
        </mxCell>
        <mxCell id="6tPHo7xOfF66FTx9ZSS8-86" value="" style="endArrow=none;html=1;rounded=0;exitX=0.25;exitY=0;exitDx=0;exitDy=0;entryX=0.5;entryY=1;entryDx=0;entryDy=0;" parent="1" source="6tPHo7xOfF66FTx9ZSS8-43" target="6tPHo7xOfF66FTx9ZSS8-82" edge="1">
          <mxGeometry relative="1" as="geometry">
            <mxPoint x="-2998.75" y="870" as="sourcePoint" />
            <mxPoint x="-2838.75" y="870" as="targetPoint" />
          </mxGeometry>
        </mxCell>
        <mxCell id="6tPHo7xOfF66FTx9ZSS8-89" value="" style="endArrow=none;html=1;rounded=0;exitX=0;exitY=1;exitDx=0;exitDy=0;entryX=1;entryY=0.75;entryDx=0;entryDy=0;" parent="1" target="6tPHo7xOfF66FTx9ZSS8-90" edge="1">
          <mxGeometry relative="1" as="geometry">
            <mxPoint x="-2837.75" y="617" as="sourcePoint" />
            <mxPoint x="-2790" y="634" as="targetPoint" />
          </mxGeometry>
        </mxCell>
        <mxCell id="6tPHo7xOfF66FTx9ZSS8-312" value="m" style="edgeLabel;html=1;align=center;verticalAlign=middle;resizable=0;points=[];" parent="6tPHo7xOfF66FTx9ZSS8-89" vertex="1" connectable="0">
          <mxGeometry x="0.8234" y="1" relative="1" as="geometry">
            <mxPoint as="offset" />
          </mxGeometry>
        </mxCell>
        <mxCell id="6tPHo7xOfF66FTx9ZSS8-90" value="Orders" style="whiteSpace=wrap;html=1;align=center;fillColor=#e1d5e7;strokeColor=#9673a6;" parent="1" vertex="1">
          <mxGeometry x="-3060" y="609.75" width="100" height="40" as="geometry" />
        </mxCell>
        <mxCell id="6tPHo7xOfF66FTx9ZSS8-98" value="Stores" style="rounded=1;arcSize=10;whiteSpace=wrap;html=1;align=center;fillColor=#dae8fc;strokeColor=#6c8ebf;" parent="1" vertex="1">
          <mxGeometry x="-3184" y="737.75" width="100" height="40" as="geometry" />
        </mxCell>
        <mxCell id="6tPHo7xOfF66FTx9ZSS8-99" value="displays" style="shape=rhombus;perimeter=rhombusPerimeter;whiteSpace=wrap;html=1;align=center;" parent="1" vertex="1">
          <mxGeometry x="-3168" y="813.75" width="68" height="42" as="geometry" />
        </mxCell>
        <mxCell id="6tPHo7xOfF66FTx9ZSS8-100" value="outfitsinStore" style="rounded=1;arcSize=10;whiteSpace=wrap;html=1;align=center;fillColor=#dae8fc;strokeColor=#6c8ebf;" parent="1" vertex="1">
          <mxGeometry x="-3184" y="903.75" width="100" height="40" as="geometry" />
        </mxCell>
        <mxCell id="6tPHo7xOfF66FTx9ZSS8-101" value="" style="endArrow=none;html=1;rounded=0;exitX=0.5;exitY=1;exitDx=0;exitDy=0;entryX=0.5;entryY=0;entryDx=0;entryDy=0;" parent="1" source="6tPHo7xOfF66FTx9ZSS8-99" target="6tPHo7xOfF66FTx9ZSS8-100" edge="1">
          <mxGeometry relative="1" as="geometry">
            <mxPoint x="-3026" y="814.75" as="sourcePoint" />
            <mxPoint x="-2866" y="814.75" as="targetPoint" />
          </mxGeometry>
        </mxCell>
        <mxCell id="6tPHo7xOfF66FTx9ZSS8-102" value="m" style="edgeLabel;html=1;align=center;verticalAlign=middle;resizable=0;points=[];" parent="6tPHo7xOfF66FTx9ZSS8-101" vertex="1" connectable="0">
          <mxGeometry x="-0.1389" relative="1" as="geometry">
            <mxPoint as="offset" />
          </mxGeometry>
        </mxCell>
        <mxCell id="6tPHo7xOfF66FTx9ZSS8-103" value="" style="endArrow=none;html=1;rounded=0;exitX=0.5;exitY=1;exitDx=0;exitDy=0;entryX=0.5;entryY=0;entryDx=0;entryDy=0;" parent="1" source="6tPHo7xOfF66FTx9ZSS8-98" target="6tPHo7xOfF66FTx9ZSS8-99" edge="1">
          <mxGeometry relative="1" as="geometry">
            <mxPoint x="-3046.5" y="777.75" as="sourcePoint" />
            <mxPoint x="-2886.5" y="777.75" as="targetPoint" />
          </mxGeometry>
        </mxCell>
        <mxCell id="6tPHo7xOfF66FTx9ZSS8-104" value="1" style="edgeLabel;html=1;align=center;verticalAlign=middle;resizable=0;points=[];" parent="6tPHo7xOfF66FTx9ZSS8-103" vertex="1" connectable="0">
          <mxGeometry x="-0.1481" y="-1" relative="1" as="geometry">
            <mxPoint as="offset" />
          </mxGeometry>
        </mxCell>
        <mxCell id="6tPHo7xOfF66FTx9ZSS8-110" value="outfit_store_id" style="ellipse;whiteSpace=wrap;html=1;align=center;fontStyle=4;" parent="1" vertex="1">
          <mxGeometry x="-3092" y="963.75" width="131" height="26.5" as="geometry" />
        </mxCell>
        <mxCell id="6tPHo7xOfF66FTx9ZSS8-111" value="price" style="ellipse;whiteSpace=wrap;html=1;align=center;" parent="1" vertex="1">
          <mxGeometry x="-3289" y="844.75" width="126" height="28" as="geometry" />
        </mxCell>
        <mxCell id="6tPHo7xOfF66FTx9ZSS8-112" value="outfit_type" style="ellipse;whiteSpace=wrap;html=1;align=center;" parent="1" vertex="1">
          <mxGeometry x="-3284" y="1031.75" width="133" height="27" as="geometry" />
        </mxCell>
        <mxCell id="6tPHo7xOfF66FTx9ZSS8-113" value="store_id" style="ellipse;whiteSpace=wrap;html=1;align=center;" parent="1" vertex="1">
          <mxGeometry x="-3142" y="1042.25" width="134" height="26.5" as="geometry" />
        </mxCell>
        <mxCell id="6tPHo7xOfF66FTx9ZSS8-114" value="color" style="ellipse;whiteSpace=wrap;html=1;align=center;" parent="1" vertex="1">
          <mxGeometry x="-3298" y="967.75" width="134" height="26" as="geometry" />
        </mxCell>
        <mxCell id="6tPHo7xOfF66FTx9ZSS8-115" value="" style="endArrow=none;html=1;rounded=0;exitX=1;exitY=0.5;exitDx=0;exitDy=0;entryX=0.5;entryY=0;entryDx=0;entryDy=0;" parent="1" source="6tPHo7xOfF66FTx9ZSS8-100" target="6tPHo7xOfF66FTx9ZSS8-110" edge="1">
          <mxGeometry relative="1" as="geometry">
            <mxPoint x="-3054" y="924.75" as="sourcePoint" />
            <mxPoint x="-2894" y="924.75" as="targetPoint" />
          </mxGeometry>
        </mxCell>
        <mxCell id="6tPHo7xOfF66FTx9ZSS8-116" value="" style="endArrow=none;html=1;rounded=0;exitX=0.75;exitY=1;exitDx=0;exitDy=0;entryX=0.5;entryY=0;entryDx=0;entryDy=0;" parent="1" source="6tPHo7xOfF66FTx9ZSS8-100" target="6tPHo7xOfF66FTx9ZSS8-113" edge="1">
          <mxGeometry relative="1" as="geometry">
            <mxPoint x="-3054" y="924.75" as="sourcePoint" />
            <mxPoint x="-2894" y="924.75" as="targetPoint" />
          </mxGeometry>
        </mxCell>
        <mxCell id="6tPHo7xOfF66FTx9ZSS8-117" value="" style="endArrow=none;html=1;rounded=0;exitX=0.787;exitY=0.049;exitDx=0;exitDy=0;entryX=0.5;entryY=1;entryDx=0;entryDy=0;exitPerimeter=0;" parent="1" source="6tPHo7xOfF66FTx9ZSS8-112" target="6tPHo7xOfF66FTx9ZSS8-100" edge="1">
          <mxGeometry relative="1" as="geometry">
            <mxPoint x="-3054" y="924.75" as="sourcePoint" />
            <mxPoint x="-2894" y="924.75" as="targetPoint" />
            <Array as="points" />
          </mxGeometry>
        </mxCell>
        <mxCell id="6tPHo7xOfF66FTx9ZSS8-118" value="" style="endArrow=none;html=1;rounded=0;exitX=0;exitY=1;exitDx=0;exitDy=0;entryX=0.5;entryY=0;entryDx=0;entryDy=0;" parent="1" source="6tPHo7xOfF66FTx9ZSS8-100" target="6tPHo7xOfF66FTx9ZSS8-114" edge="1">
          <mxGeometry relative="1" as="geometry">
            <mxPoint x="-3054" y="924.75" as="sourcePoint" />
            <mxPoint x="-2894" y="924.75" as="targetPoint" />
          </mxGeometry>
        </mxCell>
        <mxCell id="6tPHo7xOfF66FTx9ZSS8-119" value="" style="endArrow=none;html=1;rounded=0;exitX=0.25;exitY=0;exitDx=0;exitDy=0;entryX=0.5;entryY=1;entryDx=0;entryDy=0;" parent="1" source="6tPHo7xOfF66FTx9ZSS8-100" target="6tPHo7xOfF66FTx9ZSS8-111" edge="1">
          <mxGeometry relative="1" as="geometry">
            <mxPoint x="-3054" y="924.75" as="sourcePoint" />
            <mxPoint x="-2894" y="924.75" as="targetPoint" />
          </mxGeometry>
        </mxCell>
        <mxCell id="6tPHo7xOfF66FTx9ZSS8-120" value="store_id" style="ellipse;whiteSpace=wrap;html=1;align=center;fontStyle=4;" parent="1" vertex="1">
          <mxGeometry x="-3339" y="779.75" width="120" height="24.5" as="geometry" />
        </mxCell>
        <mxCell id="6tPHo7xOfF66FTx9ZSS8-121" value="location" style="ellipse;whiteSpace=wrap;html=1;align=center;" parent="1" vertex="1">
          <mxGeometry x="-3311" y="655.25" width="135" height="23.5" as="geometry" />
        </mxCell>
        <mxCell id="6tPHo7xOfF66FTx9ZSS8-122" value="store_name" style="ellipse;whiteSpace=wrap;html=1;align=center;direction=west;" parent="1" vertex="1">
          <mxGeometry x="-3351" y="717.75" width="116" height="26" as="geometry" />
        </mxCell>
        <mxCell id="6tPHo7xOfF66FTx9ZSS8-123" value="contact_number" style="ellipse;shape=doubleEllipse;margin=3;whiteSpace=wrap;html=1;align=center;" parent="1" vertex="1">
          <mxGeometry x="-3072" y="792.75" width="115" height="21" as="geometry" />
        </mxCell>
        <mxCell id="6tPHo7xOfF66FTx9ZSS8-124" value="" style="endArrow=none;html=1;rounded=0;exitX=1;exitY=0.5;exitDx=0;exitDy=0;entryX=0.5;entryY=0;entryDx=0;entryDy=0;" parent="1" source="6tPHo7xOfF66FTx9ZSS8-98" target="6tPHo7xOfF66FTx9ZSS8-123" edge="1">
          <mxGeometry relative="1" as="geometry">
            <mxPoint x="-2952" y="827.75" as="sourcePoint" />
            <mxPoint x="-2792" y="827.75" as="targetPoint" />
          </mxGeometry>
        </mxCell>
        <mxCell id="6tPHo7xOfF66FTx9ZSS8-125" value="" style="endArrow=none;html=1;rounded=0;exitX=0;exitY=0.75;exitDx=0;exitDy=0;entryX=0.5;entryY=0;entryDx=0;entryDy=0;" parent="1" source="6tPHo7xOfF66FTx9ZSS8-98" target="6tPHo7xOfF66FTx9ZSS8-120" edge="1">
          <mxGeometry relative="1" as="geometry">
            <mxPoint x="-2952" y="827.75" as="sourcePoint" />
            <mxPoint x="-2792" y="827.75" as="targetPoint" />
          </mxGeometry>
        </mxCell>
        <mxCell id="6tPHo7xOfF66FTx9ZSS8-126" value="" style="endArrow=none;html=1;rounded=0;exitX=0;exitY=0.25;exitDx=0;exitDy=0;entryX=0;entryY=0.5;entryDx=0;entryDy=0;" parent="1" source="6tPHo7xOfF66FTx9ZSS8-98" target="6tPHo7xOfF66FTx9ZSS8-122" edge="1">
          <mxGeometry relative="1" as="geometry">
            <mxPoint x="-2952" y="827.75" as="sourcePoint" />
            <mxPoint x="-2792" y="827.75" as="targetPoint" />
          </mxGeometry>
        </mxCell>
        <mxCell id="6tPHo7xOfF66FTx9ZSS8-127" value="" style="endArrow=none;html=1;rounded=0;exitX=0.5;exitY=1;exitDx=0;exitDy=0;entryX=0.25;entryY=0;entryDx=0;entryDy=0;" parent="1" source="6tPHo7xOfF66FTx9ZSS8-121" target="6tPHo7xOfF66FTx9ZSS8-98" edge="1">
          <mxGeometry relative="1" as="geometry">
            <mxPoint x="-2952" y="827.75" as="sourcePoint" />
            <mxPoint x="-2792" y="827.75" as="targetPoint" />
          </mxGeometry>
        </mxCell>
        <mxCell id="6tPHo7xOfF66FTx9ZSS8-128" value="order_id" style="ellipse;whiteSpace=wrap;html=1;align=center;fontStyle=4;" parent="1" vertex="1">
          <mxGeometry x="-2957" y="572.75" width="100" height="22" as="geometry" />
        </mxCell>
        <mxCell id="6tPHo7xOfF66FTx9ZSS8-129" value="store_id" style="ellipse;whiteSpace=wrap;html=1;align=center;" parent="1" vertex="1">
          <mxGeometry x="-2997" y="540.75" width="110" height="18" as="geometry" />
        </mxCell>
        <mxCell id="6tPHo7xOfF66FTx9ZSS8-130" value="totoal_price" style="ellipse;whiteSpace=wrap;html=1;align=center;" parent="1" vertex="1">
          <mxGeometry x="-3079" y="703.25" width="138" height="20" as="geometry" />
        </mxCell>
        <mxCell id="6tPHo7xOfF66FTx9ZSS8-131" value="order_status" style="ellipse;whiteSpace=wrap;html=1;align=center;" parent="1" vertex="1">
          <mxGeometry x="-3217" y="616.25" width="131" height="26" as="geometry" />
        </mxCell>
        <mxCell id="6tPHo7xOfF66FTx9ZSS8-132" value="user_id" style="ellipse;whiteSpace=wrap;html=1;align=center;" parent="1" vertex="1">
          <mxGeometry x="-3191" y="551.75" width="119" height="27" as="geometry" />
        </mxCell>
        <mxCell id="6tPHo7xOfF66FTx9ZSS8-133" value="" style="endArrow=none;html=1;rounded=0;exitX=1;exitY=0;exitDx=0;exitDy=0;entryX=0.5;entryY=1;entryDx=0;entryDy=0;" parent="1" source="6tPHo7xOfF66FTx9ZSS8-90" target="6tPHo7xOfF66FTx9ZSS8-128" edge="1">
          <mxGeometry relative="1" as="geometry">
            <mxPoint x="-3023" y="573.75" as="sourcePoint" />
            <mxPoint x="-2863" y="573.75" as="targetPoint" />
          </mxGeometry>
        </mxCell>
        <mxCell id="6tPHo7xOfF66FTx9ZSS8-134" value="" style="endArrow=none;html=1;rounded=0;exitX=0.75;exitY=0;exitDx=0;exitDy=0;entryX=0;entryY=1;entryDx=0;entryDy=0;" parent="1" source="6tPHo7xOfF66FTx9ZSS8-90" target="6tPHo7xOfF66FTx9ZSS8-129" edge="1">
          <mxGeometry relative="1" as="geometry">
            <mxPoint x="-3023" y="573.75" as="sourcePoint" />
            <mxPoint x="-2863" y="573.75" as="targetPoint" />
          </mxGeometry>
        </mxCell>
        <mxCell id="6tPHo7xOfF66FTx9ZSS8-135" value="" style="endArrow=none;html=1;rounded=0;exitX=0.5;exitY=1;exitDx=0;exitDy=0;entryX=0.5;entryY=0;entryDx=0;entryDy=0;" parent="1" source="6tPHo7xOfF66FTx9ZSS8-90" target="6tPHo7xOfF66FTx9ZSS8-130" edge="1">
          <mxGeometry relative="1" as="geometry">
            <mxPoint x="-3023" y="573.75" as="sourcePoint" />
            <mxPoint x="-2863" y="573.75" as="targetPoint" />
          </mxGeometry>
        </mxCell>
        <mxCell id="6tPHo7xOfF66FTx9ZSS8-136" value="" style="endArrow=none;html=1;rounded=0;exitX=0;exitY=0.5;exitDx=0;exitDy=0;entryX=1;entryY=0.5;entryDx=0;entryDy=0;" parent="1" source="6tPHo7xOfF66FTx9ZSS8-90" target="6tPHo7xOfF66FTx9ZSS8-131" edge="1">
          <mxGeometry relative="1" as="geometry">
            <mxPoint x="-3023" y="573.75" as="sourcePoint" />
            <mxPoint x="-2863" y="573.75" as="targetPoint" />
          </mxGeometry>
        </mxCell>
        <mxCell id="6tPHo7xOfF66FTx9ZSS8-137" value="" style="endArrow=none;html=1;rounded=0;exitX=0;exitY=0;exitDx=0;exitDy=0;entryX=1;entryY=1;entryDx=0;entryDy=0;" parent="1" source="6tPHo7xOfF66FTx9ZSS8-90" target="6tPHo7xOfF66FTx9ZSS8-132" edge="1">
          <mxGeometry relative="1" as="geometry">
            <mxPoint x="-3023" y="573.75" as="sourcePoint" />
            <mxPoint x="-2863" y="573.75" as="targetPoint" />
          </mxGeometry>
        </mxCell>
        <mxCell id="6tPHo7xOfF66FTx9ZSS8-138" value="" style="endArrow=none;html=1;rounded=0;exitX=0.5;exitY=0;exitDx=0;exitDy=0;entryX=0;entryY=0.75;entryDx=0;entryDy=0;" parent="1" source="6tPHo7xOfF66FTx9ZSS8-140" target="6tPHo7xOfF66FTx9ZSS8-90" edge="1">
          <mxGeometry relative="1" as="geometry">
            <mxPoint x="-2811" y="801.75" as="sourcePoint" />
            <mxPoint x="-2651" y="801.75" as="targetPoint" />
            <Array as="points" />
          </mxGeometry>
        </mxCell>
        <mxCell id="6tPHo7xOfF66FTx9ZSS8-315" value="m" style="edgeLabel;html=1;align=center;verticalAlign=middle;resizable=0;points=[];" parent="6tPHo7xOfF66FTx9ZSS8-138" vertex="1" connectable="0">
          <mxGeometry x="0.5011" y="2" relative="1" as="geometry">
            <mxPoint as="offset" />
          </mxGeometry>
        </mxCell>
        <mxCell id="6tPHo7xOfF66FTx9ZSS8-139" value="" style="endArrow=none;html=1;rounded=0;exitX=0.5;exitY=0;exitDx=0;exitDy=0;entryX=0;entryY=0.75;entryDx=0;entryDy=0;" parent="1" source="6tPHo7xOfF66FTx9ZSS8-98" target="6tPHo7xOfF66FTx9ZSS8-140" edge="1">
          <mxGeometry relative="1" as="geometry">
            <mxPoint x="-3134" y="737.75" as="sourcePoint" />
            <mxPoint x="-3060" y="639.75" as="targetPoint" />
            <Array as="points" />
          </mxGeometry>
        </mxCell>
        <mxCell id="6tPHo7xOfF66FTx9ZSS8-316" value="m" style="edgeLabel;html=1;align=center;verticalAlign=middle;resizable=0;points=[];" parent="6tPHo7xOfF66FTx9ZSS8-139" vertex="1" connectable="0">
          <mxGeometry x="-0.3436" y="-2" relative="1" as="geometry">
            <mxPoint as="offset" />
          </mxGeometry>
        </mxCell>
        <mxCell id="6tPHo7xOfF66FTx9ZSS8-140" value="collects" style="shape=rhombus;perimeter=rhombusPerimeter;whiteSpace=wrap;html=1;align=center;" parent="1" vertex="1">
          <mxGeometry x="-3168" y="659.75" width="80" height="50" as="geometry" />
        </mxCell>
        <mxCell id="6tPHo7xOfF66FTx9ZSS8-143" value="" style="endArrow=none;html=1;rounded=0;exitX=0;exitY=1;exitDx=0;exitDy=0;entryX=1;entryY=0.75;entryDx=0;entryDy=0;" parent="1" source="6tPHo7xOfF66FTx9ZSS8-1" target="6tPHo7xOfF66FTx9ZSS8-142" edge="1">
          <mxGeometry relative="1" as="geometry">
            <mxPoint x="-2741" y="558" as="sourcePoint" />
            <mxPoint x="-3135" y="622" as="targetPoint" />
          </mxGeometry>
        </mxCell>
        <mxCell id="6tPHo7xOfF66FTx9ZSS8-311" value="m" style="edgeLabel;html=1;align=center;verticalAlign=middle;resizable=0;points=[];" parent="6tPHo7xOfF66FTx9ZSS8-143" vertex="1" connectable="0">
          <mxGeometry x="-0.6827" relative="1" as="geometry">
            <mxPoint as="offset" />
          </mxGeometry>
        </mxCell>
        <mxCell id="6tPHo7xOfF66FTx9ZSS8-142" value="places" style="shape=rhombus;perimeter=rhombusPerimeter;whiteSpace=wrap;html=1;align=center;" parent="1" vertex="1">
          <mxGeometry x="-2868.75" y="588" width="77" height="42" as="geometry" />
        </mxCell>
        <mxCell id="6tPHo7xOfF66FTx9ZSS8-144" value="Payment" style="whiteSpace=wrap;html=1;align=center;fillColor=#dae8fc;strokeColor=#6c8ebf;" parent="1" vertex="1">
          <mxGeometry x="-3212" y="371.25" width="100" height="40" as="geometry" />
        </mxCell>
        <mxCell id="6tPHo7xOfF66FTx9ZSS8-152" value="user_id" style="ellipse;whiteSpace=wrap;html=1;align=center;" parent="1" vertex="1">
          <mxGeometry x="-3118" y="281.25" width="113" height="26.5" as="geometry" />
        </mxCell>
        <mxCell id="6tPHo7xOfF66FTx9ZSS8-153" value="payment_id" style="ellipse;whiteSpace=wrap;html=1;align=center;fontStyle=4;" parent="1" vertex="1">
          <mxGeometry x="-3290" y="439.25" width="122" height="32" as="geometry" />
        </mxCell>
        <mxCell id="6tPHo7xOfF66FTx9ZSS8-154" value="payment_method" style="ellipse;whiteSpace=wrap;html=1;align=center;" parent="1" vertex="1">
          <mxGeometry x="-3353" y="374.25" width="113" height="29" as="geometry" />
        </mxCell>
        <mxCell id="6tPHo7xOfF66FTx9ZSS8-155" value="status" style="ellipse;whiteSpace=wrap;html=1;align=center;" parent="1" vertex="1">
          <mxGeometry x="-3234" y="269.25" width="113" height="27" as="geometry" />
        </mxCell>
        <mxCell id="6tPHo7xOfF66FTx9ZSS8-156" value="order_id" style="ellipse;whiteSpace=wrap;html=1;align=center;" parent="1" vertex="1">
          <mxGeometry x="-3340.5" y="301.25" width="113" height="31" as="geometry" />
        </mxCell>
        <mxCell id="6tPHo7xOfF66FTx9ZSS8-166" value="" style="endArrow=none;html=1;rounded=0;exitX=0.5;exitY=0;exitDx=0;exitDy=0;entryX=0.25;entryY=1;entryDx=0;entryDy=0;" parent="1" source="6tPHo7xOfF66FTx9ZSS8-153" target="6tPHo7xOfF66FTx9ZSS8-144" edge="1">
          <mxGeometry relative="1" as="geometry">
            <mxPoint x="-3038" y="456.25" as="sourcePoint" />
            <mxPoint x="-2878" y="456.25" as="targetPoint" />
          </mxGeometry>
        </mxCell>
        <mxCell id="6tPHo7xOfF66FTx9ZSS8-167" value="" style="endArrow=none;html=1;rounded=0;entryX=0.75;entryY=0;entryDx=0;entryDy=0;" parent="1" target="6tPHo7xOfF66FTx9ZSS8-144" edge="1">
          <mxGeometry relative="1" as="geometry">
            <mxPoint x="-3083" y="307.25" as="sourcePoint" />
            <mxPoint x="-2878" y="456.25" as="targetPoint" />
          </mxGeometry>
        </mxCell>
        <mxCell id="6tPHo7xOfF66FTx9ZSS8-168" value="" style="endArrow=none;html=1;rounded=0;exitX=0.5;exitY=1;exitDx=0;exitDy=0;entryX=0.5;entryY=0;entryDx=0;entryDy=0;" parent="1" source="6tPHo7xOfF66FTx9ZSS8-155" target="6tPHo7xOfF66FTx9ZSS8-144" edge="1">
          <mxGeometry relative="1" as="geometry">
            <mxPoint x="-3038" y="456.25" as="sourcePoint" />
            <mxPoint x="-2878" y="456.25" as="targetPoint" />
          </mxGeometry>
        </mxCell>
        <mxCell id="6tPHo7xOfF66FTx9ZSS8-169" value="" style="endArrow=none;html=1;rounded=0;exitX=0.5;exitY=1;exitDx=0;exitDy=0;entryX=0;entryY=0;entryDx=0;entryDy=0;" parent="1" source="6tPHo7xOfF66FTx9ZSS8-156" target="6tPHo7xOfF66FTx9ZSS8-144" edge="1">
          <mxGeometry relative="1" as="geometry">
            <mxPoint x="-3038" y="456.25" as="sourcePoint" />
            <mxPoint x="-2878" y="456.25" as="targetPoint" />
          </mxGeometry>
        </mxCell>
        <mxCell id="6tPHo7xOfF66FTx9ZSS8-170" value="" style="endArrow=none;html=1;rounded=0;exitX=1;exitY=0.5;exitDx=0;exitDy=0;entryX=0;entryY=0.5;entryDx=0;entryDy=0;" parent="1" source="6tPHo7xOfF66FTx9ZSS8-154" target="6tPHo7xOfF66FTx9ZSS8-144" edge="1">
          <mxGeometry relative="1" as="geometry">
            <mxPoint x="-3038" y="456.25" as="sourcePoint" />
            <mxPoint x="-2878" y="456.25" as="targetPoint" />
          </mxGeometry>
        </mxCell>
        <mxCell id="6tPHo7xOfF66FTx9ZSS8-171" value="" style="endArrow=none;html=1;rounded=0;exitX=0.41;exitY=0.075;exitDx=0;exitDy=0;exitPerimeter=0;entryX=0.75;entryY=1;entryDx=0;entryDy=0;" parent="1" source="6tPHo7xOfF66FTx9ZSS8-172" target="6tPHo7xOfF66FTx9ZSS8-144" edge="1">
          <mxGeometry relative="1" as="geometry">
            <mxPoint x="-3038" y="572.25" as="sourcePoint" />
            <mxPoint x="-2878" y="572.25" as="targetPoint" />
          </mxGeometry>
        </mxCell>
        <mxCell id="6tPHo7xOfF66FTx9ZSS8-314" value="1" style="edgeLabel;html=1;align=center;verticalAlign=middle;resizable=0;points=[];" parent="6tPHo7xOfF66FTx9ZSS8-171" vertex="1" connectable="0">
          <mxGeometry x="0.7167" y="-1" relative="1" as="geometry">
            <mxPoint as="offset" />
          </mxGeometry>
        </mxCell>
        <mxCell id="6tPHo7xOfF66FTx9ZSS8-174" value="" style="endArrow=none;html=1;rounded=0;exitX=0.25;exitY=0;exitDx=0;exitDy=0;entryX=1;entryY=1;entryDx=0;entryDy=0;" parent="1" source="6tPHo7xOfF66FTx9ZSS8-90" target="6tPHo7xOfF66FTx9ZSS8-172" edge="1">
          <mxGeometry relative="1" as="geometry">
            <mxPoint x="-3019" y="612.75" as="sourcePoint" />
            <mxPoint x="-3061" y="524" as="targetPoint" />
          </mxGeometry>
        </mxCell>
        <mxCell id="6tPHo7xOfF66FTx9ZSS8-313" value="m" style="edgeLabel;html=1;align=center;verticalAlign=middle;resizable=0;points=[];" parent="6tPHo7xOfF66FTx9ZSS8-174" vertex="1" connectable="0">
          <mxGeometry x="-0.7409" y="1" relative="1" as="geometry">
            <mxPoint as="offset" />
          </mxGeometry>
        </mxCell>
        <mxCell id="6tPHo7xOfF66FTx9ZSS8-172" value="gets paid" style="shape=rhombus;perimeter=rhombusPerimeter;whiteSpace=wrap;html=1;align=center;" parent="1" vertex="1">
          <mxGeometry x="-3089" y="500" width="81" height="46.5" as="geometry" />
        </mxCell>
        <mxCell id="6tPHo7xOfF66FTx9ZSS8-176" value="Notifications" style="rounded=1;arcSize=10;whiteSpace=wrap;html=1;align=center;fillColor=#e1d5e7;strokeColor=#9673a6;" parent="1" vertex="1">
          <mxGeometry x="-2657" y="319" width="100" height="40" as="geometry" />
        </mxCell>
        <mxCell id="6tPHo7xOfF66FTx9ZSS8-179" value="notification_id" style="ellipse;whiteSpace=wrap;html=1;align=center;fontStyle=4;" parent="1" vertex="1">
          <mxGeometry x="-2540" y="340.5" width="142" height="32" as="geometry" />
        </mxCell>
        <mxCell id="6tPHo7xOfF66FTx9ZSS8-180" value="message" style="ellipse;whiteSpace=wrap;html=1;align=center;" parent="1" vertex="1">
          <mxGeometry x="-2554" y="227" width="131" height="32" as="geometry" />
        </mxCell>
        <mxCell id="6tPHo7xOfF66FTx9ZSS8-181" value="user_id" style="ellipse;whiteSpace=wrap;html=1;align=center;" parent="1" vertex="1">
          <mxGeometry x="-2665.75" y="193" width="123" height="32" as="geometry" />
        </mxCell>
        <mxCell id="6tPHo7xOfF66FTx9ZSS8-182" value="date" style="ellipse;whiteSpace=wrap;html=1;align=center;" parent="1" vertex="1">
          <mxGeometry x="-2828.25" y="208" width="122" height="28" as="geometry" />
        </mxCell>
        <mxCell id="6tPHo7xOfF66FTx9ZSS8-184" value="" style="endArrow=none;html=1;rounded=0;entryX=0.75;entryY=0;entryDx=0;entryDy=0;exitX=0.5;exitY=1;exitDx=0;exitDy=0;" parent="1" source="6tPHo7xOfF66FTx9ZSS8-180" target="6tPHo7xOfF66FTx9ZSS8-176" edge="1">
          <mxGeometry relative="1" as="geometry">
            <mxPoint x="-2452.4542812123136" y="317.8987002755259" as="sourcePoint" />
            <mxPoint x="-2630" y="379" as="targetPoint" />
          </mxGeometry>
        </mxCell>
        <mxCell id="6tPHo7xOfF66FTx9ZSS8-185" value="" style="endArrow=none;html=1;rounded=0;exitX=0.25;exitY=0;exitDx=0;exitDy=0;entryX=0.302;entryY=1.094;entryDx=0;entryDy=0;entryPerimeter=0;" parent="1" source="6tPHo7xOfF66FTx9ZSS8-176" target="6tPHo7xOfF66FTx9ZSS8-181" edge="1">
          <mxGeometry relative="1" as="geometry">
            <mxPoint x="-2790" y="379" as="sourcePoint" />
            <mxPoint x="-2630" y="379" as="targetPoint" />
          </mxGeometry>
        </mxCell>
        <mxCell id="6tPHo7xOfF66FTx9ZSS8-186" value="" style="endArrow=none;html=1;rounded=0;exitX=0;exitY=0;exitDx=0;exitDy=0;entryX=0.5;entryY=1;entryDx=0;entryDy=0;" parent="1" source="6tPHo7xOfF66FTx9ZSS8-176" target="6tPHo7xOfF66FTx9ZSS8-182" edge="1">
          <mxGeometry relative="1" as="geometry">
            <mxPoint x="-2790" y="379" as="sourcePoint" />
            <mxPoint x="-2630" y="379" as="targetPoint" />
          </mxGeometry>
        </mxCell>
        <mxCell id="6tPHo7xOfF66FTx9ZSS8-187" value="" style="endArrow=none;html=1;rounded=0;exitX=0.5;exitY=0;exitDx=0;exitDy=0;entryX=0.25;entryY=1;entryDx=0;entryDy=0;" parent="1" source="6tPHo7xOfF66FTx9ZSS8-11" target="6tPHo7xOfF66FTx9ZSS8-176" edge="1">
          <mxGeometry relative="1" as="geometry">
            <mxPoint x="-2299" y="401" as="sourcePoint" />
            <mxPoint x="-2139" y="401" as="targetPoint" />
          </mxGeometry>
        </mxCell>
        <mxCell id="6tPHo7xOfF66FTx9ZSS8-292" value="m" style="edgeLabel;html=1;align=center;verticalAlign=middle;resizable=0;points=[];" parent="6tPHo7xOfF66FTx9ZSS8-187" vertex="1" connectable="0">
          <mxGeometry x="-0.0422" y="1" relative="1" as="geometry">
            <mxPoint as="offset" />
          </mxGeometry>
        </mxCell>
        <mxCell id="6tPHo7xOfF66FTx9ZSS8-188" value="" style="endArrow=none;html=1;rounded=0;exitX=1;exitY=0.5;exitDx=0;exitDy=0;" parent="1" source="6tPHo7xOfF66FTx9ZSS8-176" edge="1">
          <mxGeometry relative="1" as="geometry">
            <mxPoint x="-2299" y="401" as="sourcePoint" />
            <mxPoint x="-2465" y="339" as="targetPoint" />
          </mxGeometry>
        </mxCell>
        <mxCell id="6tPHo7xOfF66FTx9ZSS8-190" value="Wardobe" style="whiteSpace=wrap;html=1;align=center;fillColor=#e1d5e7;strokeColor=#9673a6;" parent="1" vertex="1">
          <mxGeometry x="-2277.75" y="521.25" width="100" height="40" as="geometry" />
        </mxCell>
        <mxCell id="6tPHo7xOfF66FTx9ZSS8-201" value="Wardobe_id" style="ellipse;whiteSpace=wrap;html=1;align=center;fontStyle=4;" parent="1" vertex="1">
          <mxGeometry x="-2247.75" y="404" width="116" height="28" as="geometry" />
        </mxCell>
        <mxCell id="6tPHo7xOfF66FTx9ZSS8-202" value="type" style="ellipse;whiteSpace=wrap;html=1;align=center;" parent="1" vertex="1">
          <mxGeometry x="-2128.25" y="444.5" width="87.5" height="23" as="geometry" />
        </mxCell>
        <mxCell id="6tPHo7xOfF66FTx9ZSS8-203" value="user_id" style="ellipse;whiteSpace=wrap;html=1;align=center;" parent="1" vertex="1">
          <mxGeometry x="-2127.5" y="521.25" width="86" height="15" as="geometry" />
        </mxCell>
        <mxCell id="6tPHo7xOfF66FTx9ZSS8-204" value="color" style="ellipse;whiteSpace=wrap;html=1;align=center;" parent="1" vertex="1">
          <mxGeometry x="-2372.75" y="417" width="95" height="22" as="geometry" />
        </mxCell>
        <mxCell id="6tPHo7xOfF66FTx9ZSS8-205" value="clothing_item" style="ellipse;whiteSpace=wrap;html=1;align=center;" parent="1" vertex="1">
          <mxGeometry x="-2453.5" y="469.5" width="115" height="25" as="geometry" />
        </mxCell>
        <mxCell id="6tPHo7xOfF66FTx9ZSS8-206" value="" style="endArrow=none;html=1;rounded=0;exitX=1;exitY=0.5;exitDx=0;exitDy=0;entryX=0;entryY=0.5;entryDx=0;entryDy=0;" parent="1" source="6tPHo7xOfF66FTx9ZSS8-2" target="6tPHo7xOfF66FTx9ZSS8-190" edge="1">
          <mxGeometry relative="1" as="geometry">
            <mxPoint x="-2287.0000000000005" y="491.0000000000002" as="sourcePoint" />
            <mxPoint x="-1666" y="227.5" as="targetPoint" />
          </mxGeometry>
        </mxCell>
        <mxCell id="6tPHo7xOfF66FTx9ZSS8-293" value="1" style="edgeLabel;html=1;align=center;verticalAlign=middle;resizable=0;points=[];" parent="6tPHo7xOfF66FTx9ZSS8-206" vertex="1" connectable="0">
          <mxGeometry x="-0.0489" relative="1" as="geometry">
            <mxPoint as="offset" />
          </mxGeometry>
        </mxCell>
        <mxCell id="6tPHo7xOfF66FTx9ZSS8-306" value="m" style="edgeLabel;html=1;align=center;verticalAlign=middle;resizable=0;points=[];" parent="6tPHo7xOfF66FTx9ZSS8-206" vertex="1" connectable="0">
          <mxGeometry x="-0.042" y="1" relative="1" as="geometry">
            <mxPoint as="offset" />
          </mxGeometry>
        </mxCell>
        <mxCell id="6tPHo7xOfF66FTx9ZSS8-208" value="recommends" style="shape=rhombus;perimeter=rhombusPerimeter;whiteSpace=wrap;html=1;align=center;" parent="1" vertex="1">
          <mxGeometry x="-2295.25" y="590.75" width="103" height="48" as="geometry" />
        </mxCell>
        <mxCell id="6tPHo7xOfF66FTx9ZSS8-209" value="Outfit Recommendation" style="rounded=1;arcSize=10;whiteSpace=wrap;html=1;align=center;fillColor=#d5e8d4;strokeColor=#82b366;" parent="1" vertex="1">
          <mxGeometry x="-2292.25" y="675.75" width="100" height="40" as="geometry" />
        </mxCell>
        <mxCell id="6tPHo7xOfF66FTx9ZSS8-210" value="liked" style="shape=rhombus;perimeter=rhombusPerimeter;whiteSpace=wrap;html=1;align=center;" parent="1" vertex="1">
          <mxGeometry x="-2291.75" y="782.75" width="108" height="55" as="geometry" />
        </mxCell>
        <mxCell id="6tPHo7xOfF66FTx9ZSS8-211" value="Ratings" style="rounded=1;arcSize=10;whiteSpace=wrap;html=1;align=center;fillColor=#d5e8d4;strokeColor=#82b366;" parent="1" vertex="1">
          <mxGeometry x="-2292.25" y="904.75" width="100" height="40" as="geometry" />
        </mxCell>
        <mxCell id="6tPHo7xOfF66FTx9ZSS8-212" value="" style="endArrow=none;html=1;rounded=0;exitX=0.5;exitY=0;exitDx=0;exitDy=0;entryX=0.5;entryY=1;entryDx=0;entryDy=0;" parent="1" source="6tPHo7xOfF66FTx9ZSS8-209" target="6tPHo7xOfF66FTx9ZSS8-208" edge="1">
          <mxGeometry relative="1" as="geometry">
            <mxPoint x="-2400.75" y="638.75" as="sourcePoint" />
            <mxPoint x="-2240.75" y="633.75" as="targetPoint" />
          </mxGeometry>
        </mxCell>
        <mxCell id="6tPHo7xOfF66FTx9ZSS8-213" value="m" style="edgeLabel;html=1;align=center;verticalAlign=middle;resizable=0;points=[];" parent="6tPHo7xOfF66FTx9ZSS8-212" vertex="1" connectable="0">
          <mxGeometry x="0.0376" relative="1" as="geometry">
            <mxPoint as="offset" />
          </mxGeometry>
        </mxCell>
        <mxCell id="6tPHo7xOfF66FTx9ZSS8-214" value="" style="endArrow=none;html=1;rounded=0;exitX=0.5;exitY=0;exitDx=0;exitDy=0;" parent="1" edge="1">
          <mxGeometry relative="1" as="geometry">
            <mxPoint x="-2237.75" y="902.75" as="sourcePoint" />
            <mxPoint x="-2235.75" y="837.75" as="targetPoint" />
          </mxGeometry>
        </mxCell>
        <mxCell id="6tPHo7xOfF66FTx9ZSS8-215" value="m" style="edgeLabel;html=1;align=center;verticalAlign=middle;resizable=0;points=[];" parent="6tPHo7xOfF66FTx9ZSS8-214" vertex="1" connectable="0">
          <mxGeometry x="-0.0009" y="-1" relative="1" as="geometry">
            <mxPoint as="offset" />
          </mxGeometry>
        </mxCell>
        <mxCell id="6tPHo7xOfF66FTx9ZSS8-216" value="" style="endArrow=none;html=1;rounded=0;exitX=0.5;exitY=1;exitDx=0;exitDy=0;" parent="1" source="6tPHo7xOfF66FTx9ZSS8-209" edge="1">
          <mxGeometry relative="1" as="geometry">
            <mxPoint x="-2399.75" y="782.75" as="sourcePoint" />
            <mxPoint x="-2239.75" y="782.75" as="targetPoint" />
          </mxGeometry>
        </mxCell>
        <mxCell id="6tPHo7xOfF66FTx9ZSS8-217" value="m" style="edgeLabel;html=1;align=center;verticalAlign=middle;resizable=0;points=[];" parent="6tPHo7xOfF66FTx9ZSS8-216" vertex="1" connectable="0">
          <mxGeometry x="0.0673" y="-2" relative="1" as="geometry">
            <mxPoint as="offset" />
          </mxGeometry>
        </mxCell>
        <mxCell id="6tPHo7xOfF66FTx9ZSS8-220" value="wishlist" style="rounded=1;arcSize=10;whiteSpace=wrap;html=1;align=center;fillColor=#d5e8d4;strokeColor=#82b366;" parent="1" vertex="1">
          <mxGeometry x="-2001.75" y="837.5" width="100" height="40" as="geometry" />
        </mxCell>
        <mxCell id="6tPHo7xOfF66FTx9ZSS8-221" value="" style="endArrow=none;html=1;rounded=0;exitX=0;exitY=0;exitDx=0;exitDy=0;entryX=0.759;entryY=0.927;entryDx=0;entryDy=0;entryPerimeter=0;" parent="1" source="6tPHo7xOfF66FTx9ZSS8-209" target="6tPHo7xOfF66FTx9ZSS8-228" edge="1">
          <mxGeometry relative="1" as="geometry">
            <mxPoint x="-2471.75" y="760.75" as="sourcePoint" />
            <mxPoint x="-2345.75" y="653.75" as="targetPoint" />
          </mxGeometry>
        </mxCell>
        <mxCell id="6tPHo7xOfF66FTx9ZSS8-222" value="" style="endArrow=none;html=1;rounded=0;entryX=1;entryY=0.5;entryDx=0;entryDy=0;exitX=0;exitY=1;exitDx=0;exitDy=0;" parent="1" source="6tPHo7xOfF66FTx9ZSS8-209" target="6tPHo7xOfF66FTx9ZSS8-225" edge="1">
          <mxGeometry relative="1" as="geometry">
            <mxPoint x="-2292.75" y="715.75" as="sourcePoint" />
            <mxPoint x="-2320.75" y="738.75" as="targetPoint" />
          </mxGeometry>
        </mxCell>
        <mxCell id="6tPHo7xOfF66FTx9ZSS8-223" value="" style="endArrow=none;html=1;rounded=0;exitX=1;exitY=0.75;exitDx=0;exitDy=0;entryX=0;entryY=0;entryDx=0;entryDy=0;" parent="1" source="6tPHo7xOfF66FTx9ZSS8-209" target="6tPHo7xOfF66FTx9ZSS8-226" edge="1">
          <mxGeometry relative="1" as="geometry">
            <mxPoint x="-2471.75" y="760.75" as="sourcePoint" />
            <mxPoint x="-2128.75" y="741.75" as="targetPoint" />
          </mxGeometry>
        </mxCell>
        <mxCell id="6tPHo7xOfF66FTx9ZSS8-224" value="" style="endArrow=none;html=1;rounded=0;exitX=1;exitY=0;exitDx=0;exitDy=0;entryX=0;entryY=1;entryDx=0;entryDy=0;" parent="1" source="6tPHo7xOfF66FTx9ZSS8-209" target="6tPHo7xOfF66FTx9ZSS8-227" edge="1">
          <mxGeometry relative="1" as="geometry">
            <mxPoint x="-2471.75" y="814.75" as="sourcePoint" />
            <mxPoint x="-2130.75" y="657.75" as="targetPoint" />
          </mxGeometry>
        </mxCell>
        <mxCell id="6tPHo7xOfF66FTx9ZSS8-225" value="outfit_id" style="ellipse;whiteSpace=wrap;html=1;align=center;fontStyle=4;" parent="1" vertex="1">
          <mxGeometry x="-2447.5" y="693.75" width="103" height="30" as="geometry" />
        </mxCell>
        <mxCell id="6tPHo7xOfF66FTx9ZSS8-226" value="outfit_type" style="ellipse;whiteSpace=wrap;html=1;align=center;" parent="1" vertex="1">
          <mxGeometry x="-2131.75" y="719.75" width="129" height="27" as="geometry" />
        </mxCell>
        <mxCell id="6tPHo7xOfF66FTx9ZSS8-227" value="event_id" style="ellipse;whiteSpace=wrap;html=1;align=center;" parent="1" vertex="1">
          <mxGeometry x="-2133.75" y="642.75" width="125" height="31" as="geometry" />
        </mxCell>
        <mxCell id="6tPHo7xOfF66FTx9ZSS8-228" value="color" style="ellipse;whiteSpace=wrap;html=1;align=center;" parent="1" vertex="1">
          <mxGeometry x="-2433.75" y="630.75" width="104" height="27" as="geometry" />
        </mxCell>
        <mxCell id="6tPHo7xOfF66FTx9ZSS8-229" value="" style="endArrow=none;html=1;rounded=0;entryX=0;entryY=0.5;entryDx=0;entryDy=0;exitX=1;exitY=1;exitDx=0;exitDy=0;" parent="1" source="6tPHo7xOfF66FTx9ZSS8-234" target="6tPHo7xOfF66FTx9ZSS8-211" edge="1">
          <mxGeometry relative="1" as="geometry">
            <mxPoint x="-2349.75" y="866.75" as="sourcePoint" />
            <mxPoint x="-2311.75" y="893.75" as="targetPoint" />
          </mxGeometry>
        </mxCell>
        <mxCell id="6tPHo7xOfF66FTx9ZSS8-230" value="" style="endArrow=none;html=1;rounded=0;exitX=0.25;exitY=1;exitDx=0;exitDy=0;entryX=1;entryY=0;entryDx=0;entryDy=0;" parent="1" source="6tPHo7xOfF66FTx9ZSS8-211" target="6tPHo7xOfF66FTx9ZSS8-237" edge="1">
          <mxGeometry relative="1" as="geometry">
            <mxPoint x="-2471.75" y="919.75" as="sourcePoint" />
            <mxPoint x="-2352.75" y="968.75" as="targetPoint" />
          </mxGeometry>
        </mxCell>
        <mxCell id="6tPHo7xOfF66FTx9ZSS8-231" value="" style="endArrow=none;html=1;rounded=0;exitX=0.75;exitY=1;exitDx=0;exitDy=0;entryX=0.5;entryY=0;entryDx=0;entryDy=0;" parent="1" source="6tPHo7xOfF66FTx9ZSS8-211" target="6tPHo7xOfF66FTx9ZSS8-236" edge="1">
          <mxGeometry relative="1" as="geometry">
            <mxPoint x="-2465.75" y="924.22" as="sourcePoint" />
            <mxPoint x="-2219.75" y="1007.75" as="targetPoint" />
          </mxGeometry>
        </mxCell>
        <mxCell id="6tPHo7xOfF66FTx9ZSS8-232" value="" style="endArrow=none;html=1;rounded=0;exitX=1;exitY=0.5;exitDx=0;exitDy=0;entryX=0;entryY=0;entryDx=0;entryDy=0;" parent="1" source="6tPHo7xOfF66FTx9ZSS8-211" target="6tPHo7xOfF66FTx9ZSS8-235" edge="1">
          <mxGeometry relative="1" as="geometry">
            <mxPoint x="-2463.75" y="933.75" as="sourcePoint" />
            <mxPoint x="-2111.75" y="950.75" as="targetPoint" />
          </mxGeometry>
        </mxCell>
        <mxCell id="6tPHo7xOfF66FTx9ZSS8-233" value="" style="endArrow=none;html=1;rounded=0;exitX=0.75;exitY=0;exitDx=0;exitDy=0;entryX=0;entryY=1;entryDx=0;entryDy=0;" parent="1" source="6tPHo7xOfF66FTx9ZSS8-211" target="6tPHo7xOfF66FTx9ZSS8-238" edge="1">
          <mxGeometry relative="1" as="geometry">
            <mxPoint x="-2471.75" y="893.75" as="sourcePoint" />
            <mxPoint x="-2133.75" y="861.75" as="targetPoint" />
          </mxGeometry>
        </mxCell>
        <mxCell id="6tPHo7xOfF66FTx9ZSS8-234" value="rating_id" style="ellipse;whiteSpace=wrap;html=1;align=center;fontStyle=4;" parent="1" vertex="1">
          <mxGeometry x="-2458" y="909.75" width="124" height="30" as="geometry" />
        </mxCell>
        <mxCell id="6tPHo7xOfF66FTx9ZSS8-235" value="outfit_id" style="ellipse;whiteSpace=wrap;html=1;align=center;" parent="1" vertex="1">
          <mxGeometry x="-2131.75" y="944.75" width="123" height="35" as="geometry" />
        </mxCell>
        <mxCell id="6tPHo7xOfF66FTx9ZSS8-236" value="reviews" style="ellipse;whiteSpace=wrap;html=1;align=center;" parent="1" vertex="1">
          <mxGeometry x="-2280.25" y="985.75" width="129.5" height="36" as="geometry" />
        </mxCell>
        <mxCell id="6tPHo7xOfF66FTx9ZSS8-237" value="rating_value" style="ellipse;whiteSpace=wrap;html=1;align=center;" parent="1" vertex="1">
          <mxGeometry x="-2424.75" y="986.75" width="115" height="35" as="geometry" />
        </mxCell>
        <mxCell id="6tPHo7xOfF66FTx9ZSS8-238" value="user_id" style="ellipse;whiteSpace=wrap;html=1;align=center;" parent="1" vertex="1">
          <mxGeometry x="-2148.75" y="856.75" width="136" height="32" as="geometry" />
        </mxCell>
        <mxCell id="6tPHo7xOfF66FTx9ZSS8-244" value="wishlist_id" style="ellipse;whiteSpace=wrap;html=1;align=center;fontStyle=4;" parent="1" vertex="1">
          <mxGeometry x="-1883.75" y="828.75" width="118" height="24.5" as="geometry" />
        </mxCell>
        <mxCell id="6tPHo7xOfF66FTx9ZSS8-245" value="outfit_id" style="ellipse;whiteSpace=wrap;html=1;align=center;" parent="1" vertex="1">
          <mxGeometry x="-1932.75" y="738.5" width="111" height="25" as="geometry" />
        </mxCell>
        <mxCell id="6tPHo7xOfF66FTx9ZSS8-246" value="user_id" style="ellipse;whiteSpace=wrap;html=1;align=center;" parent="1" vertex="1">
          <mxGeometry x="-2062.75" y="753.75" width="123" height="22" as="geometry" />
        </mxCell>
        <mxCell id="6tPHo7xOfF66FTx9ZSS8-248" value="" style="endArrow=none;html=1;rounded=0;entryX=1;entryY=0.5;entryDx=0;entryDy=0;exitX=0.5;exitY=1;exitDx=0;exitDy=0;" parent="1" source="6tPHo7xOfF66FTx9ZSS8-244" target="6tPHo7xOfF66FTx9ZSS8-220" edge="1">
          <mxGeometry relative="1" as="geometry">
            <mxPoint x="-1963.75" y="841.5" as="sourcePoint" />
            <mxPoint x="-1803.75" y="841.5" as="targetPoint" />
          </mxGeometry>
        </mxCell>
        <mxCell id="6tPHo7xOfF66FTx9ZSS8-249" value="" style="endArrow=none;html=1;rounded=0;entryX=0.5;entryY=1;entryDx=0;entryDy=0;exitX=0.82;exitY=0.008;exitDx=0;exitDy=0;exitPerimeter=0;" parent="1" source="6tPHo7xOfF66FTx9ZSS8-220" target="6tPHo7xOfF66FTx9ZSS8-245" edge="1">
          <mxGeometry relative="1" as="geometry">
            <mxPoint x="-1963.75" y="841.5" as="sourcePoint" />
            <mxPoint x="-1803.75" y="841.5" as="targetPoint" />
          </mxGeometry>
        </mxCell>
        <mxCell id="6tPHo7xOfF66FTx9ZSS8-250" value="" style="endArrow=none;html=1;rounded=0;exitX=0.5;exitY=1;exitDx=0;exitDy=0;entryX=0.25;entryY=0;entryDx=0;entryDy=0;" parent="1" source="6tPHo7xOfF66FTx9ZSS8-246" target="6tPHo7xOfF66FTx9ZSS8-220" edge="1">
          <mxGeometry relative="1" as="geometry">
            <mxPoint x="-1980.75" y="818.5" as="sourcePoint" />
            <mxPoint x="-1820.75" y="818.5" as="targetPoint" />
          </mxGeometry>
        </mxCell>
        <mxCell id="6tPHo7xOfF66FTx9ZSS8-251" value="added date" style="ellipse;whiteSpace=wrap;html=1;align=center;" parent="1" vertex="1">
          <mxGeometry x="-1912.75" y="920.25" width="124" height="19.5" as="geometry" />
        </mxCell>
        <mxCell id="6tPHo7xOfF66FTx9ZSS8-252" value="" style="endArrow=none;html=1;rounded=0;exitX=1;exitY=1;exitDx=0;exitDy=0;entryX=0;entryY=0.5;entryDx=0;entryDy=0;" parent="1" source="6tPHo7xOfF66FTx9ZSS8-257" target="6tPHo7xOfF66FTx9ZSS8-220" edge="1">
          <mxGeometry relative="1" as="geometry">
            <mxPoint x="-2389.75" y="621.75" as="sourcePoint" />
            <mxPoint x="-2229.75" y="621.75" as="targetPoint" />
            <Array as="points" />
          </mxGeometry>
        </mxCell>
        <mxCell id="6tPHo7xOfF66FTx9ZSS8-310" value="m" style="edgeLabel;html=1;align=center;verticalAlign=middle;resizable=0;points=[];" parent="6tPHo7xOfF66FTx9ZSS8-252" vertex="1" connectable="0">
          <mxGeometry x="0.492" y="2" relative="1" as="geometry">
            <mxPoint y="-1" as="offset" />
          </mxGeometry>
        </mxCell>
        <mxCell id="6tPHo7xOfF66FTx9ZSS8-256" value="" style="endArrow=none;html=1;rounded=0;exitX=0.75;exitY=1;exitDx=0;exitDy=0;entryX=0.5;entryY=0;entryDx=0;entryDy=0;" parent="1" source="6tPHo7xOfF66FTx9ZSS8-220" target="6tPHo7xOfF66FTx9ZSS8-251" edge="1">
          <mxGeometry relative="1" as="geometry">
            <mxPoint x="-2423.75" y="789.5" as="sourcePoint" />
            <mxPoint x="-2263.75" y="789.5" as="targetPoint" />
          </mxGeometry>
        </mxCell>
        <mxCell id="6tPHo7xOfF66FTx9ZSS8-258" value="" style="endArrow=none;html=1;rounded=0;exitX=0.75;exitY=1;exitDx=0;exitDy=0;entryX=0;entryY=0;entryDx=0;entryDy=0;" parent="1" source="6tPHo7xOfF66FTx9ZSS8-209" target="6tPHo7xOfF66FTx9ZSS8-257" edge="1">
          <mxGeometry relative="1" as="geometry">
            <mxPoint x="-2216.75" y="715.75" as="sourcePoint" />
            <mxPoint x="-1817.75" y="815.75" as="targetPoint" />
            <Array as="points" />
          </mxGeometry>
        </mxCell>
        <mxCell id="6tPHo7xOfF66FTx9ZSS8-309" value="m" style="edgeLabel;html=1;align=center;verticalAlign=middle;resizable=0;points=[];" parent="6tPHo7xOfF66FTx9ZSS8-258" vertex="1" connectable="0">
          <mxGeometry x="-0.7053" y="1" relative="1" as="geometry">
            <mxPoint as="offset" />
          </mxGeometry>
        </mxCell>
        <mxCell id="6tPHo7xOfF66FTx9ZSS8-257" value="regular" style="shape=rhombus;perimeter=rhombusPerimeter;whiteSpace=wrap;html=1;align=center;" parent="1" vertex="1">
          <mxGeometry x="-2160.75" y="780.25" width="120" height="44.75" as="geometry" />
        </mxCell>
        <mxCell id="6tPHo7xOfF66FTx9ZSS8-259" value="Events" style="whiteSpace=wrap;html=1;align=center;fillColor=#d5e8d4;strokeColor=#82b366;" parent="1" vertex="1">
          <mxGeometry x="-2450.25" y="793" width="100" height="40" as="geometry" />
        </mxCell>
        <mxCell id="6tPHo7xOfF66FTx9ZSS8-263" value="" style="endArrow=none;html=1;rounded=0;entryX=0.5;entryY=1;entryDx=0;entryDy=0;exitX=0;exitY=0.25;exitDx=0;exitDy=0;" parent="1" source="6tPHo7xOfF66FTx9ZSS8-259" target="6tPHo7xOfF66FTx9ZSS8-264" edge="1">
          <mxGeometry relative="1" as="geometry">
            <mxPoint x="-2446.25" y="801.25" as="sourcePoint" />
            <mxPoint x="-2323.25" y="776" as="targetPoint" />
          </mxGeometry>
        </mxCell>
        <mxCell id="6tPHo7xOfF66FTx9ZSS8-264" value="event_name" style="ellipse;whiteSpace=wrap;html=1;align=center;" parent="1" vertex="1">
          <mxGeometry x="-2609.25" y="766.25" width="102.5" height="28" as="geometry" />
        </mxCell>
        <mxCell id="6tPHo7xOfF66FTx9ZSS8-265" value="" style="endArrow=none;html=1;rounded=0;exitX=0.75;exitY=1;exitDx=0;exitDy=0;entryX=0.5;entryY=0;entryDx=0;entryDy=0;" parent="1" source="6tPHo7xOfF66FTx9ZSS8-259" target="6tPHo7xOfF66FTx9ZSS8-266" edge="1">
          <mxGeometry relative="1" as="geometry">
            <mxPoint x="-2375.25" y="833" as="sourcePoint" />
            <mxPoint x="-2299.25" y="861" as="targetPoint" />
          </mxGeometry>
        </mxCell>
        <mxCell id="6tPHo7xOfF66FTx9ZSS8-266" value="event_id" style="ellipse;whiteSpace=wrap;html=1;align=center;fontStyle=4;" parent="1" vertex="1">
          <mxGeometry x="-2558.25" y="864.75" width="103" height="29" as="geometry" />
        </mxCell>
        <mxCell id="6tPHo7xOfF66FTx9ZSS8-267" value="" style="endArrow=none;html=1;rounded=0;exitX=0;exitY=0.5;exitDx=0;exitDy=0;" parent="1" source="6tPHo7xOfF66FTx9ZSS8-259" target="6tPHo7xOfF66FTx9ZSS8-268" edge="1">
          <mxGeometry relative="1" as="geometry">
            <mxPoint x="-2450.25" y="813" as="sourcePoint" />
            <mxPoint x="-2483.25" y="857" as="targetPoint" />
          </mxGeometry>
        </mxCell>
        <mxCell id="6tPHo7xOfF66FTx9ZSS8-268" value="outfit_suggestion" style="ellipse;whiteSpace=wrap;html=1;align=center;" parent="1" vertex="1">
          <mxGeometry x="-2615.25" y="825.5" width="94" height="25" as="geometry" />
        </mxCell>
        <mxCell id="6tPHo7xOfF66FTx9ZSS8-280" value="" style="endArrow=none;html=1;rounded=0;exitX=0.5;exitY=0;exitDx=0;exitDy=0;entryX=0.25;entryY=1;entryDx=0;entryDy=0;" parent="1" source="6tPHo7xOfF66FTx9ZSS8-208" target="6tPHo7xOfF66FTx9ZSS8-190" edge="1">
          <mxGeometry relative="1" as="geometry">
            <mxPoint x="-2133" y="561" as="sourcePoint" />
            <mxPoint x="-1973" y="561" as="targetPoint" />
          </mxGeometry>
        </mxCell>
        <mxCell id="6tPHo7xOfF66FTx9ZSS8-294" value="m" style="edgeLabel;html=1;align=center;verticalAlign=middle;resizable=0;points=[];" parent="6tPHo7xOfF66FTx9ZSS8-280" vertex="1" connectable="0">
          <mxGeometry x="0.1731" y="-1" relative="1" as="geometry">
            <mxPoint as="offset" />
          </mxGeometry>
        </mxCell>
        <mxCell id="6tPHo7xOfF66FTx9ZSS8-281" value="" style="endArrow=none;html=1;rounded=0;exitX=1;exitY=0.5;exitDx=0;exitDy=0;" parent="1" source="6tPHo7xOfF66FTx9ZSS8-190" edge="1">
          <mxGeometry relative="1" as="geometry">
            <mxPoint x="-2133" y="561" as="sourcePoint" />
            <mxPoint x="-2128" y="529" as="targetPoint" />
          </mxGeometry>
        </mxCell>
        <mxCell id="6tPHo7xOfF66FTx9ZSS8-282" value="" style="endArrow=none;html=1;rounded=0;exitX=0.75;exitY=0;exitDx=0;exitDy=0;entryX=0;entryY=0.5;entryDx=0;entryDy=0;" parent="1" source="6tPHo7xOfF66FTx9ZSS8-190" target="6tPHo7xOfF66FTx9ZSS8-202" edge="1">
          <mxGeometry relative="1" as="geometry">
            <mxPoint x="-2133" y="561" as="sourcePoint" />
            <mxPoint x="-1973" y="561" as="targetPoint" />
          </mxGeometry>
        </mxCell>
        <mxCell id="6tPHo7xOfF66FTx9ZSS8-283" value="" style="endArrow=none;html=1;rounded=0;exitX=0.5;exitY=0;exitDx=0;exitDy=0;entryX=0;entryY=1;entryDx=0;entryDy=0;" parent="1" source="6tPHo7xOfF66FTx9ZSS8-190" target="6tPHo7xOfF66FTx9ZSS8-201" edge="1">
          <mxGeometry relative="1" as="geometry">
            <mxPoint x="-2133" y="561" as="sourcePoint" />
            <mxPoint x="-1973" y="561" as="targetPoint" />
          </mxGeometry>
        </mxCell>
        <mxCell id="6tPHo7xOfF66FTx9ZSS8-284" value="" style="endArrow=none;html=1;rounded=0;exitX=0.25;exitY=0;exitDx=0;exitDy=0;entryX=0.5;entryY=1;entryDx=0;entryDy=0;" parent="1" source="6tPHo7xOfF66FTx9ZSS8-190" target="6tPHo7xOfF66FTx9ZSS8-204" edge="1">
          <mxGeometry relative="1" as="geometry">
            <mxPoint x="-2133" y="561" as="sourcePoint" />
            <mxPoint x="-1973" y="561" as="targetPoint" />
          </mxGeometry>
        </mxCell>
        <mxCell id="6tPHo7xOfF66FTx9ZSS8-285" value="" style="endArrow=none;html=1;rounded=0;exitX=0.5;exitY=1;exitDx=0;exitDy=0;entryX=0;entryY=0.25;entryDx=0;entryDy=0;" parent="1" source="6tPHo7xOfF66FTx9ZSS8-205" target="6tPHo7xOfF66FTx9ZSS8-190" edge="1">
          <mxGeometry relative="1" as="geometry">
            <mxPoint x="-2133" y="561" as="sourcePoint" />
            <mxPoint x="-1973" y="561" as="targetPoint" />
          </mxGeometry>
        </mxCell>
        <mxCell id="6tPHo7xOfF66FTx9ZSS8-287" value="" style="endArrow=none;html=1;rounded=0;exitX=0.5;exitY=0;exitDx=0;exitDy=0;entryX=0.25;entryY=1;entryDx=0;entryDy=0;" parent="1" source="6tPHo7xOfF66FTx9ZSS8-288" target="6tPHo7xOfF66FTx9ZSS8-209" edge="1">
          <mxGeometry relative="1" as="geometry">
            <mxPoint x="-2358" y="733" as="sourcePoint" />
            <mxPoint x="-2198" y="733" as="targetPoint" />
          </mxGeometry>
        </mxCell>
        <mxCell id="6tPHo7xOfF66FTx9ZSS8-307" value="m" style="edgeLabel;html=1;align=center;verticalAlign=middle;resizable=0;points=[];" parent="6tPHo7xOfF66FTx9ZSS8-287" vertex="1" connectable="0">
          <mxGeometry x="0.0191" relative="1" as="geometry">
            <mxPoint as="offset" />
          </mxGeometry>
        </mxCell>
        <mxCell id="6tPHo7xOfF66FTx9ZSS8-289" value="" style="endArrow=none;html=1;rounded=0;exitX=0.5;exitY=0;exitDx=0;exitDy=0;entryX=0.5;entryY=1;entryDx=0;entryDy=0;" parent="1" source="6tPHo7xOfF66FTx9ZSS8-259" target="6tPHo7xOfF66FTx9ZSS8-288" edge="1">
          <mxGeometry relative="1" as="geometry">
            <mxPoint x="-2400" y="793" as="sourcePoint" />
            <mxPoint x="-2267" y="716" as="targetPoint" />
          </mxGeometry>
        </mxCell>
        <mxCell id="6tPHo7xOfF66FTx9ZSS8-308" value="1" style="edgeLabel;html=1;align=center;verticalAlign=middle;resizable=0;points=[];" parent="6tPHo7xOfF66FTx9ZSS8-289" vertex="1" connectable="0">
          <mxGeometry x="-0.0161" y="1" relative="1" as="geometry">
            <mxPoint as="offset" />
          </mxGeometry>
        </mxCell>
        <mxCell id="6tPHo7xOfF66FTx9ZSS8-288" value="selects" style="shape=rhombus;perimeter=rhombusPerimeter;whiteSpace=wrap;html=1;align=center;" parent="1" vertex="1">
          <mxGeometry x="-2365" y="729" width="87.25" height="48" as="geometry" />
        </mxCell>
      </root>
    </mxGraphModel>
  </diagram>
</mxfile>
